<svg xmlns="http://www.w3.org/2000/svg">
  <symbol id="code" viewBox="0 0 1080 1080">
  <path d="M990 149.87v602.786c0 31-25.143 56.143-56.143 56.143h-17.429c4.714-18.571 7.214-38.072 7.214-58.143 0-130.071-105.428-235.5-235.5-235.5s-235.571 105.429-235.571 235.5c0 20.071 2.5 39.572 7.214 58.143H146.143c-31 0-56.143-25.143-56.143-56.143V149.87c0-31 25.143-56.071 56.143-56.071h787.714c31-.001 56.143 25.07 56.143 56.071z" style="fill:none;stroke-width:13;stroke-linecap:round;stroke-linejoin:round"/>
  <path d="M990 237.946v-88.042c0-31-25.13-56.131-56.131-56.131H146.131c-31 0-56.131 25.13-56.131 56.131v88.042h900z" style="fill:none;stroke-width:13;stroke-linecap:round;stroke-linejoin:round"/>
  <path d="M227.286 165.824c0 18.286-14.857 33.143-33.143 33.143S161 184.11 161 165.824s14.857-33.071 33.143-33.071c18.286-.001 33.143 14.785 33.143 33.071zm129.222 0c0 18.286-14.857 33.143-33.143 33.143s-33.143-14.857-33.143-33.143 14.857-33.071 33.143-33.071c18.286-.001 33.143 14.785 33.143 33.071zm129.223 0c0 18.286-14.857 33.143-33.143 33.143s-33.143-14.857-33.143-33.143 14.857-33.071 33.143-33.071c18.286-.001 33.143 14.785 33.143 33.071zm437.912 584.831c0 20.071-2.5 39.572-7.214 58.143-25.929 102-118.286 177.429-228.286 177.429s-202.429-75.429-228.357-177.429c-4.714-18.571-7.214-38.072-7.214-58.143 0-130.071 105.5-235.5 235.571-235.5s235.5 105.429 235.5 235.5z" style="fill:none;stroke-width:13;stroke-linecap:round;stroke-linejoin:round"/>
  <path d="m615.964 715.209-78.071 38.215 77.428 37.5c1.857 1 3.072 1.786 4 2.428 1.857 1.357 3.214 3.214 4.071 5.5.643 1.643 1 3.571 1.215 5.857.143 1.786.286 4.214.286 7.214 0 2.714-.143 4.929-.357 6.643-.357 2.786-1.143 4.929-2.429 6.571-1.786 2.286-4.357 3.571-7.143 3.571-.429 0-.857 0-1.214-.071-1.643-.214-3.286-.786-5.143-1.786L497.25 770.567c-2.714-1.357-4.643-3.928-5.857-7.642-.786-2.5-1.143-5.715-1.143-9.929 0-1.786.071-3.428.214-5 .215-2 .643-3.643 1.214-5.072.5-1.357 1.143-2.571 1.857-3.643 1.143-1.715 2.714-2.929 4.5-3.714l110.786-55.857c6.571-3.143 11.286-.857 13.5 2.357 1.786 2.5 2.571 6.143 2.571 12.5 0 3-.143 5.357-.286 7.143-.143 2.143-.5 3.928-1 5.5-.786 2.286-2 4.143-3.643 5.5-.999.857-2.356 1.714-3.999 2.499zm132.929-85.785c.429 2.286.215 4.714-.786 7.214l-85.571 234.643c-.643 2.071-1.572 3.857-2.786 5.286-1.429 1.572-3.143 2.786-5.143 3.571-1.5.572-3.142 1-5.071 1.286-1.714.214-3.714.357-6.072.357-2.857 0-5.286-.214-7.357-.643-2.571-.572-4.643-1.429-6.286-2.643-2.286-1.643-3.786-3.928-4.357-6.572-.5-2.428-.143-5 1.071-7.643l85.429-234.357c.572-1.786 1.5-3.643 2.786-5.143 1.286-1.429 2.857-2.643 4.643-3.428 1.572-.786 3.5-1.286 5.786-1.5 3.643-.357 9.5-.429 13.143.429 2.429.5 4.357 1.286 5.929 2.357 2.427 1.572 4.07 4 4.642 6.786zm137.071 124.143c0 2-.143 3.786-.357 5.357-.286 1.714-.572 3.143-.929 4.357-.643 2-1.5 3.643-2.714 4.929-1.071 1.214-2.286 2.143-3.643 2.786l-111.143 56.071c-2.143 1-3.857 1.429-5.5 1.571h-.572c-3.071 0-5.857-1.571-7.571-4.214-1-1.572-1.714-3.5-2-5.929-.214-1.643-.357-3.714-.357-6.286 0-2.857.072-5.071.143-6.786.143-2.285.429-4.143 1-5.786.714-2.214 1.928-4.071 3.643-5.5 1.143-1 2.5-1.857 4.214-2.572l77.928-38.357-77.5-37.357c-1.571-.714-2.928-1.5-4.071-2.357-1.857-1.286-3.214-3.214-4.071-5.643-.643-1.643-1-3.643-1.143-6.071-.071-1.715-.143-4.071-.143-6.929s.143-5.143.357-6.714c.358-2.5 1-4.5 2.072-6.071 1.928-2.786 5.071-4.286 8.5-3.786 1.786.214 3.428.786 5.286 1.786l111.357 56.072c2.714 1.357 4.643 3.929 5.929 7.643.857 2.572 1.285 5.786 1.285 9.786zM166.821 311.321h746.358m-746.358 98.316h746.358m-746.358 98.315h299.57m-299.57 98.316h252.624m-252.624 98.316H372.5" style="fill:none;stroke-width:13;stroke-linecap:round;stroke-linejoin:round"/>
  </symbol>

  <symbol id="download" fill="none" stroke="currentColor" stroke-linecap="round" stroke-linejoin="round" stroke-width="2" viewBox="0 0 24 24">
    <path d="M21 15v4a2 2 0 0 1-2 2H5a2 2 0 0 1-2-2v-4m4-5 5 5 5-5m-5 5V3"/>
  </symbol>

  <symbol id="telegram" viewBox="0 0 512 512" fill="currentColor">
  <path d="M470.4354553 45.4225006 16.8273029 221.2490387c-18.253809 8.1874695-24.4278889 24.5854034-4.4127407 33.4840851l116.3710175 37.1726685 281.3674316-174.789505c15.3625488-10.9733887 31.0910339-8.0470886 17.5573425 4.023468L186.0532227 341.074646l-7.5913849 93.0762329c7.0313721 14.3716125 19.9055786 14.4378967 28.1172485 7.2952881l66.8582916-63.5891418 114.5050659 86.1867065c26.5942688 15.8265076 41.0652466 5.6130371 46.7870789-23.3935242L509.835083 83.1804428c7.7979126-35.7059288-5.5005798-51.437891-39.3996277-37.7579422z"/>
  </symbol>

  <symbol id="linkedin" viewBox="0 0 24 24" fill="currentColor">
    <path d="M19 3a2 2 0 0 1 2 2v14a2 2 0 0 1-2 2H5a2 2 0 0 1-2-2V5a2 2 0 0 1 2-2h14m-.5 15.5v-5.3a3.26 3.26 0 0 0-3.26-3.26c-.85 0-1.84.52-2.32 1.3v-1.11h-2.79v8.37h2.79v-4.93c0-.77.62-1.4 1.39-1.4a1.4 1.4 0 0 1 1.4 1.4v4.93h2.79M6.88 8.56a1.68 1.68 0 0 0 1.68-1.68c0-.93-.75-1.69-1.68-1.69a1.69 1.69 0 0 0-1.69 1.69c0 .93.76 1.68 1.69 1.68m1.39 9.94v-8.37H5.5v8.37h2.77Z"/>
  </symbol>

  <symbol id="github" fill="currentColor" xml:space="preserve" style="enable-background:new 0 0 438.549 438.549" viewBox="0 0 438.549 438.549">
    <path d="M409.132 114.573c-19.608-33.596-46.205-60.194-79.798-79.8-33.598-19.607-70.277-29.408-110.063-29.408-39.781 0-76.472 9.804-110.063 29.408-33.596 19.605-60.192 46.204-79.8 79.8C9.803 148.168 0 184.854 0 224.63c0 47.78 13.94 90.745 41.827 128.906 27.884 38.164 63.906 64.572 108.063 79.227 5.14.954 8.945.283 11.419-1.996 2.475-2.282 3.711-5.14 3.711-8.562 0-.571-.049-5.708-.144-15.417-.098-9.709-.144-18.179-.144-25.406l-6.567 1.136c-4.187.767-9.469 1.092-15.846 1-6.374-.089-12.991-.757-19.842-1.999-6.854-1.231-13.229-4.086-19.13-8.559-5.898-4.473-10.085-10.328-12.56-17.556l-2.855-6.57c-1.903-4.374-4.899-9.233-8.992-14.559-4.093-5.331-8.232-8.945-12.419-10.848l-1.999-1.431c-1.332-.951-2.568-2.098-3.711-3.429-1.142-1.331-1.997-2.663-2.568-3.997-.572-1.335-.098-2.43 1.427-3.289 1.525-.859 4.281-1.276 8.28-1.276l5.708.853c3.807.763 8.516 3.042 14.133 6.851 5.614 3.806 10.229 8.754 13.846 14.842 4.38 7.806 9.657 13.754 15.846 17.847 6.184 4.093 12.419 6.136 18.699 6.136 6.28 0 11.704-.476 16.274-1.423 4.565-.952 8.848-2.383 12.847-4.285 1.713-12.758 6.377-22.559 13.988-29.41-10.848-1.14-20.601-2.857-29.264-5.14-8.658-2.286-17.605-5.996-26.835-11.14-9.235-5.137-16.896-11.516-22.985-19.126-6.09-7.614-11.088-17.61-14.987-29.979-3.901-12.374-5.852-26.648-5.852-42.826 0-23.035 7.52-42.637 22.557-58.817-7.044-17.318-6.379-36.732 1.997-58.24 5.52-1.715 13.706-.428 24.554 3.853 10.85 4.283 18.794 7.952 23.84 10.994 5.046 3.041 9.089 5.618 12.135 7.708 17.705-4.947 35.976-7.421 54.818-7.421s37.117 2.474 54.823 7.421l10.849-6.849c7.419-4.57 16.18-8.758 26.262-12.565 10.088-3.805 17.802-4.853 23.134-3.138 8.562 21.509 9.325 40.922 2.279 58.24 15.036 16.18 22.559 35.787 22.559 58.817 0 16.178-1.958 30.497-5.853 42.966-3.9 12.471-8.941 22.457-15.125 29.979-6.191 7.521-13.901 13.85-23.131 18.986-9.232 5.14-18.182 8.85-26.84 11.136-8.662 2.286-18.415 4.004-29.263 5.146 9.894 8.562 14.842 22.077 14.842 40.539v60.237c0 3.422 1.19 6.279 3.572 8.562 2.379 2.279 6.136 2.95 11.276 1.995 44.163-14.653 80.185-41.062 108.068-79.226 27.88-38.161 41.825-81.126 41.825-128.906-.01-39.771-9.818-76.454-29.414-110.049z"/>
  </symbol>

  <symbol id="user" viewBox="0 0 6.3499999 6.3500002">
    <path d="M3.176292.52916623c-.7275637 0-1.3245961.59496497-1.3245961 1.32252887 0 .7275639.5970324 1.3245964 1.3245961 1.3245962.727564 0 1.3220123-.5970323 1.3220123-1.3245962S3.903856.52916623 3.176292.52916623zM2.1173387 3.4398668c-.7943443 0-1.58817203.5292183-1.58817203 1.3220123v.5881349c.05042.3308308.2646094.4713351.52973543.4708184h4.2327128c.2651257.0005291.4401571-.2208035.5292182-.4708184v-.5881349c.0005292-1.0574033-.7933108-1.3220123-1.5881717-1.3220123Z"/>
  </symbol>

  <symbol id="birthday" style="enable-background:new 0 0 561 561" viewBox="0 0 561 561">
    <path d="M280.5 114.75c20.4 0 38.25-17.85 38.25-38.25 0-7.65-2.55-12.75-5.1-20.4L280.5 0l-33.15 56.1c-2.55 5.1-5.1 12.75-5.1 20.4 0 20.4 17.85 38.25 38.25 38.25zm165.75 63.75H306v-38.25h-51v38.25H114.75C51 178.5 0 229.5 0 293.25c0 40.8 20.4 73.95 51 94.35V561h459V387.6c30.6-20.399 51-56.1 51-94.35 0-63.75-51-114.75-114.75-114.75zm0 178.5c-17.85 0-33.15-7.65-45.9-17.85L362.1 300.9l-38.25 38.25c-10.2 10.2-25.5 17.85-43.35 17.85s-33.15-7.65-45.9-17.85l-38.25-38.25-38.25 38.25c-10.2 10.2-25.5 17.85-43.35 17.85C79.05 357 51 328.95 51 293.25s28.05-63.75 63.75-63.75h331.5c35.7 0 63.75 28.05 63.75 63.75S481.95 357 446.25 357z"/>
  </symbol>

  <symbol id="location" viewBox="0 0 64 64">
    <path d="M25.464 29.206c.825-5.984 4.771-9.943 10.648-10.644l13.3-13.407c-3.71-2.411-7.947-4.081-12.506-4.782l-24.29 24.332 8.635 8.674 4.213-4.173zm38.538 2.793c0-9.798-4.408-18.562-11.344-24.432l-11.16 11.268c5.719 1.337 9.256 6.049 9.256 12.774 0 2.492-1.405 5.927-3.222 9.328L57.69 51.08c3.965-5.327 6.312-11.93 6.312-19.081z"/>
    <path d="M29.29 31.609c0 2.482 3.045 9.089 8.726 16.941 5.146-7.2 8.739-14.102 8.739-16.941 0-5.83-3.183-9.173-8.732-9.173s-8.733 3.344-8.733 9.173zm8.431-4.132c2.277 0 4.123 1.846 4.123 4.123s-1.846 4.123-4.123 4.123-4.123-1.846-4.123-4.123 1.846-4.123 4.123-4.123z"/>
    <path d="M32.002 63.999c9.078 0 17.268-3.787 23.092-9.859l-9.624-9.609c-2.61 4.276-5.321 7.894-5.879 8.636l-1.567 2.057-1.557-2.057c-.995-1.301-8.68-11.559-10.691-18.607L7.53 52.609c5.87 6.963 14.652 11.39 24.472 11.39zM18.41 36.194 2.323 20.034C.831 23.731.002 27.767.002 31.999c0 6.401 1.887 12.357 5.123 17.358L18.41 36.194zM4.168 16.218l5.627 5.652L31.618.009C19.847.148 9.61 6.64 4.168 16.218z"/>
  </symbol>

  <symbol id="viber" fill="currentColor" viewBox="0 0 32 32">
    <path d="M15.198.005C12.63.036 7.109.458 4.021 3.291 1.724 5.567.922 8.932.828 13.093.75 17.239.656 25.025 8.161 27.145v3.229s-.047 1.292.807 1.557c1.052.333 1.651-.661 2.651-1.729l1.865-2.109c5.135.427 9.068-.557 9.521-.703 1.042-.333 6.911-1.083 7.87-8.87.984-8.042-.479-13.109-3.12-15.401h-.016c-.797-.734-4-3.068-11.156-3.094 0 0-.531-.036-1.385-.021zm.088 2.261c.729-.005 1.172.026 1.172.026 6.057.016 8.948 1.839 9.63 2.453 2.224 1.906 3.37 6.474 2.531 13.188-.797 6.51-5.557 6.922-6.438 7.203-.375.12-3.839.974-8.203.693 0 0-3.25 3.922-4.266 4.932-.161.177-.349.229-.469.203-.172-.042-.224-.255-.214-.547l.031-5.359c-6.365-1.76-5.99-8.401-5.922-11.87.078-3.469.729-6.307 2.667-8.229 2.609-2.359 7.297-2.677 9.479-2.693zm.48 3.468c-.219-.005-.401.177-.401.396 0 .224.182.401.401.401 2.005-.036 3.938.724 5.375 2.12 1.453 1.411 2.161 3.307 2.188 5.786 0 .219.177.401.401.401v-.016c.219 0 .401-.177.401-.396.099-2.359-.776-4.651-2.417-6.349-1.583-1.547-3.589-2.344-5.948-2.344zm-5.271.917c-.281-.042-.573.016-.818.161h-.021c-.542.318-1.047.719-1.526 1.255-.365.422-.563.849-.615 1.26-.031.245-.01.49.063.724l.026.016c.411 1.208.948 2.37 1.604 3.464.844 1.536 1.885 2.958 3.094 4.229l.036.052.057.042.036.042.042.036c1.276 1.214 2.698 2.255 4.24 3.109 1.76.958 2.828 1.411 3.469 1.599v.01c.188.057.359.083.531.083.547-.042 1.063-.26 1.469-.63.521-.469.932-.984 1.24-1.531v-.01c.307-.578.203-1.125-.24-1.495-.885-.776-1.849-1.464-2.865-2.057-.682-.37-1.375-.146-1.656.229l-.599.755c-.307.375-.865.323-.865.323l-.016.01c-4.161-1.063-5.271-5.276-5.271-5.276s-.052-.573.333-.865l.75-.604c.359-.292.609-.984.224-1.667-.589-1.021-1.276-1.979-2.052-2.865-.167-.208-.406-.349-.672-.401zm5.963 1.188c-.531 0-.531.802.005.802 1.333.021 2.604.573 3.531 1.531.844.932 1.281 2.172 1.198 3.427.005.219.182.396.401.396l.016.021c.219 0 .401-.182.401-.401.036-1.589-.458-2.922-1.427-3.99-.974-1.068-2.333-1.667-4.068-1.786h-.057zm.657 2.156c-.547-.016-.568.802-.026.818 1.318.068 1.958.734 2.042 2.104.005.219.182.391.396.391h.016c.224-.01.401-.203.385-.427-.094-1.786-1.068-2.792-2.797-2.885h-.016z"/>
  </symbol>

  <symbol id="gmail" fill="currentColor" style="enable-background:new 0 0 510 510" viewBox="0 0 510 510">
    <path d="M459 51H51C22.95 51 0 73.95 0 102v306c0 28.05 22.95 51 51 51h408c28.05 0 51-22.95 51-51V102c0-28.05-22.95-51-51-51zm0 357h-51V183.6l-153 96.9-153-96.9V408H51V102h30.6L255 209.1 428.4 102H459v306z"/>
  </symbol>

  <symbol id="phone" fill="currentColor" style="enable-background:new 0 0 477.156 477.156" viewBox="0 0 477.156 477.156">
    <path d="m475.009 380.316-2.375-7.156c-5.625-16.719-24.062-34.156-41-38.75l-62.688-17.125c-17-4.625-41.25 1.594-53.688 14.031l-22.688 22.688c-82.453-22.28-147.109-86.938-169.359-169.375L145.9 161.94c12.438-12.438 18.656-36.656 14.031-53.656l-17.094-62.719c-4.625-16.969-22.094-35.406-38.781-40.969L96.9 2.19c-16.719-5.563-40.563.063-53 12.5L9.962 48.659C3.899 54.69.024 71.94.024 72.003c-1.187 107.75 41.063 211.562 117.281 287.781 76.031 76.031 179.454 118.219 286.891 117.313.562 0 18.312-3.813 24.375-9.845l33.938-33.938c12.437-12.436 18.062-36.279 12.5-52.998z"/>
  </symbol>

</svg>
