<?xml version="1.0" standalone="no"?>
<!DOCTYPE svg PUBLIC "-//W3C//DTD SVG 20010904//EN"
 "http://www.w3.org/TR/2001/REC-SVG-20010904/DTD/svg10.dtd">
<svg version="1.0" xmlns="http://www.w3.org/2000/svg"
 width="1013.000000pt" height="1013.000000pt" viewBox="0 0 1013.000000 1013.000000"
 preserveAspectRatio="xMidYMid meet">
<metadata>
Created by potrace 1.14, written by Peter Selinger 2001-2017
</metadata>
<g transform="translate(0.000000,1013.000000) scale(0.100000,-0.100000)"
fill="#000000" stroke="none">
<path d="M0 5070 l0 -4690 5065 0 5065 0 0 4690 0 4690 -5065 0 -5065 0 0
-4690z m5250 4284 c367 -108 703 -550 956 -1254 20 -58 38 -106 40 -108 1 -2
69 33 150 79 618 344 1192 522 1556 479 192 -22 312 -74 424 -185 80 -78 130
-165 164 -287 27 -94 37 -289 21 -423 -41 -349 -210 -804 -480 -1293 -28 -49
-37 -74 -28 -77 6 -2 68 -20 136 -40 1082 -318 1664 -812 1546 -1311 -98 -416
-674 -805 -1575 -1064 -63 -19 -116 -34 -118 -35 -1 -1 16 -35 39 -76 64 -113
202 -391 253 -511 169 -398 244 -717 233 -993 -8 -201 -56 -347 -150 -459
l-34 -40 -6 133 c-4 75 -3 139 2 149 5 10 16 52 25 94 59 286 -49 728 -306
1251 -94 192 -204 393 -219 403 -5 3 -78 -11 -161 -30 -297 -69 -842 -160
-1083 -182 -74 -7 -75 -7 -80 -38 -3 -17 -17 -107 -31 -201 -46 -309 -134
-717 -213 -986 l-19 -66 124 -69 c69 -38 131 -74 140 -79 13 -9 13 -18 -3 -83
-9 -39 -19 -72 -22 -72 -3 0 -66 34 -140 75 -74 41 -138 75 -142 75 -3 0 -23
-48 -44 -107 -153 -436 -360 -800 -580 -1018 -413 -409 -888 -329 -1274 214
-140 197 -283 480 -386 766 -26 72 -50 134 -54 138 -5 5 -64 -23 -132 -61
-462 -259 -900 -427 -1244 -478 -137 -20 -378 -15 -470 11 -156 43 -304 151
-378 276 -219 370 -86 1024 382 1874 l50 91 -87 24 c-123 33 -408 130 -531
179 -581 234 -936 508 -1059 818 -24 62 -26 80 -26 203 0 121 2 142 26 202 73
190 223 357 473 523 261 174 660 347 1075 466 58 16 110 32 117 34 7 2 -9 41
-43 102 -211 378 -382 804 -444 1106 -100 489 11 836 315 982 84 41 199 75
210 63 3 -3 -1 -31 -10 -64 -8 -32 -15 -66 -15 -75 0 -12 -17 -22 -56 -35
-439 -138 -432 -778 17 -1677 66 -130 188 -357 193 -357 1 0 69 15 152 34 311
72 627 126 982 170 100 13 184 25 186 27 2 2 16 85 31 184 46 316 132 722 212
999 21 74 23 90 12 101 -28 26 -366 206 -530 281 -170 79 -170 79 -165 108 3
16 6 48 6 72 0 33 4 44 16 44 40 0 544 -247 688 -337 21 -14 41 -21 45 -16 4
4 27 62 51 128 258 715 608 1151 995 1241 74 17 217 11 295 -12z"/>
<path d="M4947 9205 c-188 -52 -380 -231 -553 -515 -105 -174 -222 -433 -304
-677 l-38 -112 131 -83 c222 -140 591 -404 820 -586 37 -29 74 -52 81 -49 7 3
77 55 157 117 228 178 549 403 802 563 31 20 57 41 57 46 0 16 -70 213 -122
341 -139 344 -301 605 -480 775 -145 138 -268 195 -418 194 -47 -1 -106 -7
-133 -14z"/>
<path d="M7685 8393 c-342 -43 -781 -210 -1247 -472 l-146 -82 15 -47 c81
-267 211 -888 238 -1143 4 -36 10 -72 15 -78 4 -8 94 -24 231 -41 339 -44 707
-109 984 -175 118 -29 97 -44 197 139 395 719 537 1316 389 1632 -61 131 -188
226 -346 259 -64 13 -252 18 -330 8z"/>
<path d="M3972 7633 c-82 -311 -139 -578 -187 -888 -29 -187 -28 -176 -12
-170 12 4 341 29 547 41 l115 7 85 77 c87 79 353 307 404 347 25 20 27 25 15
39 -45 55 -900 664 -931 664 -3 0 -19 -53 -36 -117z"/>
<path d="M5929 7608 c-297 -200 -711 -506 -718 -531 -1 -5 58 -59 131 -121 73
-62 189 -163 257 -223 l124 -111 126 -7 c69 -3 207 -13 306 -21 246 -19 235
-20 235 14 0 42 -66 426 -106 612 -39 186 -122 511 -134 523 -4 4 -103 -57
-221 -135z"/>
<path d="M4935 6858 c-71 -61 -159 -136 -195 -168 l-65 -58 404 0 c318 0 401
2 390 12 -202 179 -380 326 -393 325 -6 0 -69 -50 -141 -111z"/>
<path d="M4587 6471 l-97 -6 -176 -165 c-96 -91 -280 -274 -408 -408 l-234
-243 -7 -207 c-4 -114 -5 -375 -2 -580 4 -333 7 -375 23 -400 23 -37 761 -774
798 -798 29 -18 57 -19 596 -19 l567 0 49 40 c63 51 697 685 748 748 l39 47 9
228 c9 222 3 808 -9 907 l-6 50 -401 401 -401 401 -145 6 c-164 8 -795 6 -943
-2z m713 -506 c247 -65 457 -238 575 -473 107 -213 115 -504 20 -725 -18 -43
-48 -104 -67 -134 -42 -72 -186 -218 -263 -268 -452 -294 -1065 -118 -1291
370 -60 130 -77 211 -77 370 0 168 19 252 88 392 120 244 342 417 610 477 91
20 312 15 405 -9z"/>
<path d="M4210 6454 c-19 -2 -132 -11 -250 -20 -118 -9 -216 -17 -217 -18 -9
-7 -59 -504 -51 -511 2 -2 130 122 283 275 154 154 278 279 275 278 -3 0 -21
-3 -40 -4z"/>
<path d="M5910 6454 c0 0 126 -127 280 -281 l280 -280 -5 51 c-3 28 -14 143
-25 256 -11 112 -24 207 -28 211 -6 6 -502 49 -502 43z"/>
<path d="M3395 6375 c-221 -30 -462 -69 -650 -106 -148 -29 -377 -79 -383 -84
-5 -4 195 -312 305 -469 117 -166 366 -497 387 -515 11 -9 36 14 122 116 60
70 162 187 226 260 l117 131 11 154 c13 192 39 474 46 511 3 15 2 27 -3 26 -4
-1 -85 -11 -178 -24z"/>
<path d="M6580 6387 c0 -6 7 -70 14 -142 8 -71 19 -215 26 -320 7 -104 16
-199 20 -210 5 -11 56 -73 115 -139 59 -65 156 -178 217 -250 61 -72 114 -132
118 -134 20 -8 700 951 700 988 0 23 -622 141 -995 189 -88 12 -172 23 -187
26 -18 3 -28 0 -28 -8z"/>
<path d="M2065 6109 c-852 -254 -1329 -540 -1473 -882 -36 -86 -37 -232 -3
-322 133 -342 663 -659 1499 -896 61 -18 114 -30 116 -28 2 2 43 67 91 144
154 246 342 513 545 775 62 80 114 150 117 156 2 6 -45 74 -104 150 -198 254
-437 596 -583 832 -48 78 -68 102 -84 101 -12 0 -66 -14 -121 -30z"/>
<path d="M7860 5993 c-172 -271 -403 -597 -596 -839 l-73 -92 113 -145 c206
-264 464 -631 596 -849 29 -49 57 -88 62 -88 45 0 516 154 691 226 790 323
1096 718 865 1113 -52 88 -216 247 -343 330 -197 129 -478 260 -785 366 -147
50 -400 125 -423 125 -7 0 -56 -66 -107 -147z"/>
<path d="M3384 5323 c-207 -241 -216 -253 -211 -266 6 -16 247 -305 322 -385
9 -10 12 74 12 387 0 221 -1 401 -3 401 -1 0 -55 -62 -120 -137z"/>
<path d="M6650 5062 l1 -397 43 47 c24 26 101 115 171 198 l126 150 -67 83
c-84 101 -175 207 -231 269 l-43 47 0 -397z"/>
<path d="M2959 4803 c-152 -198 -281 -376 -396 -548 -162 -244 -205 -315 -191
-320 119 -41 873 -174 1141 -201 68 -7 68 -7 63 17 -7 30 -32 316 -46 513
l-11 149 -45 51 c-78 88 -337 389 -374 434 l-35 43 -106 -138z"/>
<path d="M6968 4792 c-64 -76 -165 -192 -225 -259 l-109 -120 -12 -189 c-6
-104 -19 -256 -27 -338 -9 -81 -13 -151 -10 -154 16 -16 682 89 1005 158 107
23 197 44 199 46 6 5 -79 139 -217 344 -130 192 -468 650 -480 650 -4 0 -59
-62 -124 -138z"/>
<path d="M3695 4136 c12 -151 42 -416 49 -423 8 -8 420 -44 466 -41 35 3 35 3
-243 279 l-278 277 6 -92z"/>
<path d="M6188 3948 c-269 -269 -277 -278 -243 -278 43 0 388 28 436 36 36 5
37 6 43 62 11 86 45 456 43 457 -1 1 -127 -124 -279 -277z"/>
<path d="M2224 3708 c-129 -224 -284 -560 -360 -783 -93 -269 -130 -471 -122
-667 10 -235 87 -382 245 -465 100 -54 170 -67 338 -67 230 0 462 53 773 176
236 93 762 360 762 387 0 4 -12 47 -26 95 -74 258 -160 665 -210 996 l-27 185
-191 24 c-332 40 -751 114 -1011 177 -55 13 -105 24 -112 24 -6 0 -33 -37 -59
-82z"/>
<path d="M3764 3514 c65 -429 140 -791 234 -1117 l8 -29 209 140 c298 198 740
525 733 542 -2 4 -61 57 -133 117 -71 61 -186 160 -255 221 l-125 110 -80 6
c-44 3 -181 13 -305 21 -124 9 -240 18 -259 22 l-33 6 6 -39z"/>
<path d="M6355 3545 c-5 -2 -113 -11 -240 -19 -126 -9 -268 -19 -314 -22 l-83
-6 -57 -51 c-80 -74 -271 -240 -373 -326 l-88 -73 74 -59 c174 -137 446 -334
651 -471 l220 -147 13 29 c15 36 91 340 126 500 32 153 63 323 91 503 23 154
23 157 -20 142z"/>
<path d="M4701 3467 c15 -12 87 -74 160 -137 212 -183 216 -186 236 -168 244
206 362 309 368 317 4 8 -113 11 -392 11 l-398 -1 26 -22z"/>
<path d="M4915 2824 c-259 -201 -513 -379 -827 -580 l-37 -24 35 -102 c214
-617 479 -1018 770 -1166 158 -80 358 -63 522 45 239 159 469 516 656 1021 82
221 85 195 -36 271 -176 110 -414 276 -657 460 -128 97 -241 181 -250 187 -13
10 -43 -9 -176 -112z"/>
</g>
</svg>
